<?xml version="1.0" encoding="utf-8"?>
<!-- Generator: Adobe Illustrator 21.0.2, SVG Export Plug-In . SVG Version: 6.00 Build 0)  -->
<svg version="1.1" id="Layer_1" xmlns="http://www.w3.org/2000/svg" xmlns:xlink="http://www.w3.org/1999/xlink" x="0px" y="0px"
	 viewBox="0 0 400 330" style="enable-background:new 0 0 400 330;" xml:space="preserve">
<style type="text/css">
	.st0{opacity:0.5;}
	.st1{fill:#79F2C0;}
	.st2{fill:#36B37E;}
	.st3{opacity:0.4;fill:url(#SVGID_1_);}
	.st4{fill:#48CC8C;}
	.st5{fill:#ABF5D1;}
	.st6{fill:none;stroke:#FFFFFF;stroke-width:2.2;stroke-miterlimit:10;}
	.st7{fill:none;stroke:#ABF5D1;stroke-width:2.2;stroke-miterlimit:10;}
	.st8{opacity:0.5;fill:url(#SVGID_2_);}
	.st9{fill:#FFFFFF;}
	.st10{fill:#A5ADBA;}
	.st11{opacity:0.4;fill:url(#SVGID_3_);}
	.st12{fill:none;stroke:#FFFFFF;stroke-width:2;stroke-miterlimit:10;}
	.st13{fill:none;stroke:#ABF5D1;stroke-width:2;stroke-miterlimit:10;}
	.st14{fill:#DFE1E5;}
	.st15{fill:#8993A4;}
	.st16{opacity:0.4;fill:#B3BAC5;}
	.st17{fill:#97A0AF;}
	.st18{fill:#B3BAC5;}
	.st19{fill:#0065FF;}
	.st20{fill:#FF991F;}
	.st21{fill:#FF8B00;}
	.st22{fill:none;stroke:#FFFFFF;stroke-width:1.8723;stroke-miterlimit:10;}
	.st23{fill:url(#SVGID_4_);}
	.st24{fill:#E2FFEE;}
</style>
<g class="st0">
	<path id="XMLID_73_" class="st1" d="M167.6,68.3h186.3c3.6,0,6.6,3,6.6,6.6v45.7H161V74.9C161,71.3,164,68.3,167.6,68.3z
		 M161,191.1h199.5v-52.3H161V191.1z M161,261.5h199.5v-52.3H161V261.5z"/>
	<polygon class="st2" points="334.4,283 350.4,283 355.8,270.6 334.1,270.6 	"/>
	<polygon class="st2" points="187.1,283 171.1,283 165.7,270.6 187.4,270.6 	"/>
	<g>
		<linearGradient id="SVGID_1_" gradientUnits="userSpaceOnUse" x1="193.5814" y1="276.8208" x2="193.5814" y2="-29.1354">
			<stop  offset="0" style="stop-color:#C1C7D0"/>
			<stop  offset="0.7548" style="stop-color:#C1C7D0;stop-opacity:0.1"/>
		</linearGradient>
		<path class="st3" d="M161,74.9v45.7h65.1c-21.2-11.6-41.3-24.3-58.4-44.3c-1.6-1.9-3.2-4-4.8-6.1C161.8,71.4,161,73.1,161,74.9z"
			/>
	</g>
	<polygon class="st4" points="165.7,129.7 355.8,129.7 360.5,120.6 161,120.6 	"/>
	<polygon class="st2" points="355.8,129.7 165.7,129.7 161,138.8 360.5,138.8 	"/>
	<polygon class="st4" points="165.7,200.2 355.8,200.2 360.5,191.1 161,191.1 	"/>
	<polygon class="st2" points="165.7,270.6 355.8,270.6 360.5,261.5 161,261.5 	"/>
	<polygon class="st2" points="355.8,200.2 165.7,200.2 161,209.2 360.5,209.2 	"/>
	<circle class="st5" cx="311.8" cy="164.9" r="3.6"/>
	<circle class="st5" cx="298.7" cy="164.9" r="3.6"/>
	<circle class="st5" cx="311.8" cy="235.4" r="3.6"/>
	<circle class="st5" cx="298.7" cy="235.4" r="3.6"/>
	<circle class="st5" cx="334.1" cy="164.9" r="8.2"/>
	<circle class="st5" cx="334.1" cy="235.4" r="8.2"/>
	<line class="st6" x1="204.9" y1="149.1" x2="204.9" y2="182.9"/>
	<line class="st6" x1="195.7" y1="149.1" x2="195.7" y2="182.9"/>
	<line class="st6" x1="186.6" y1="149.1" x2="186.6" y2="182.9"/>
	<line class="st6" x1="177.5" y1="149.1" x2="177.5" y2="182.9"/>
	<line class="st6" x1="204.9" y1="218.5" x2="204.9" y2="252.3"/>
	<line class="st6" x1="195.7" y1="218.5" x2="195.7" y2="252.3"/>
	<line class="st6" x1="186.6" y1="218.5" x2="186.6" y2="252.3"/>
	<line class="st6" x1="177.5" y1="218.5" x2="177.5" y2="252.3"/>
	<circle class="st5" cx="334.1" cy="95.4" r="8.2"/>
	<circle class="st5" cx="311.8" cy="95.4" r="3.6"/>
	<circle class="st5" cx="298.7" cy="95.4" r="3.6"/>
	<line class="st7" x1="209.3" y1="78.5" x2="209.3" y2="112.3"/>
	<line class="st7" x1="200.2" y1="78.5" x2="200.2" y2="112.3"/>
	<line class="st7" x1="191" y1="78.5" x2="191" y2="112.3"/>
	<line class="st7" x1="181.9" y1="78.5" x2="181.9" y2="112.3"/>
	<linearGradient id="SVGID_2_" gradientUnits="userSpaceOnUse" x1="174.8197" y1="169.4715" x2="321.6329" y2="169.4715">
		<stop  offset="0.3343" style="stop-color:#48CC8C"/>
		<stop  offset="0.5685" style="stop-color:#45C88A;stop-opacity:0.6038"/>
		<stop  offset="0.8188" style="stop-color:#3CBB82;stop-opacity:0.1806"/>
		<stop  offset="0.9255" style="stop-color:#36B37E;stop-opacity:0"/>
	</linearGradient>
	<path class="st8" d="M334.1,270.6H161V75c0-3.7,3-6.6,6.6-6.6h166.4V270.6z"/>
</g>
<path class="st9" d="M272.9,94c0-3.3-2.7-6-6-6H97.5c-1.6,0-3.1,0.7-4.2,1.7l0,0c0,0,0,0,0,0c-0.4,0.4-0.8,0.9-1.1,1.4c0,0,0,0,0,0
	c-0.1,0.2-0.2,0.3-0.2,0.5c0,0,0,0,0,0c-0.1,0.2-0.1,0.3-0.2,0.5c0,0,0,0,0,0.1c0,0.2-0.1,0.3-0.1,0.5c0,0,0,0.1,0,0.1
	c0,0.1-0.1,0.3-0.1,0.5c0,0,0,0.1,0,0.1c0,0.2,0,0.4,0,0.6c0,0,0,0,0,0l0,0v41.5l4.3,8.2l-4.3,8.2v47.5l4.3,8.2l-4.3,8.2v47.5
	l4.3,8.2h0l5,11.3h14.5l0.3-11.3h133.3l0.3,11.3h14.5l5-11.3h0l4.3-8.2v-47.5l-4.3-8.2l4.3-8.2v-47.5l-4.3-8.2l4.3-8.2V94z"/>
<g class="st0">
	<path id="XMLID_65_" class="st1" d="M97.5,88h169.4c3.3,0,6,2.7,6,6v41.5H91.5V94C91.5,90.7,94.2,88,97.5,88z M91.5,199.6h181.4
		v-47.5H91.5V199.6z M91.5,263.7h181.4v-47.5H91.5V263.7z"/>
	<polygon class="st2" points="249.1,283.2 263.7,283.2 268.6,271.9 248.8,271.9 	"/>
	<polygon class="st10" points="115.3,283.2 100.7,283.2 95.8,271.9 115.5,271.9 	"/>
	<g>
		<linearGradient id="SVGID_3_" gradientUnits="userSpaceOnUse" x1="121.1228" y1="277.5684" x2="121.1228" y2="-0.5736">
			<stop  offset="0" style="stop-color:#C1C7D0"/>
			<stop  offset="0.7548" style="stop-color:#C1C7D0;stop-opacity:0.1"/>
		</linearGradient>
		<path class="st11" d="M91.5,94v41.5h59.2c-19.3-10.6-37.6-22.1-53-40.3c-1.5-1.8-2.9-3.6-4.3-5.6C92.2,90.8,91.5,92.4,91.5,94z"/>
	</g>
	<polygon class="st4" points="95.8,143.8 268.6,143.8 272.9,135.6 91.5,135.6 	"/>
	<polygon class="st2" points="268.6,143.8 95.8,143.8 91.5,152.1 272.9,152.1 	"/>
	<polygon class="st4" points="95.8,207.9 268.6,207.9 272.9,199.6 91.5,199.6 	"/>
	<polygon class="st2" points="95.8,271.9 268.6,271.9 272.9,263.7 91.5,263.7 	"/>
	<polygon class="st2" points="268.6,207.9 95.8,207.9 91.5,216.1 272.9,216.1 	"/>
	<circle class="st5" cx="228.6" cy="175.9" r="3.3"/>
	<circle class="st5" cx="216.7" cy="175.9" r="3.3"/>
	<circle class="st5" cx="228.6" cy="239.9" r="3.3"/>
	<circle class="st5" cx="216.7" cy="239.9" r="3.3"/>
	<circle class="st5" cx="248.8" cy="175.9" r="7.5"/>
	<circle class="st5" cx="248.8" cy="239.9" r="7.5"/>
	<line class="st12" x1="131.4" y1="161.4" x2="131.4" y2="192.2"/>
	<line class="st12" x1="123.1" y1="161.4" x2="123.1" y2="192.2"/>
	<line class="st12" x1="114.8" y1="161.4" x2="114.8" y2="192.2"/>
	<line class="st12" x1="106.5" y1="161.4" x2="106.5" y2="192.2"/>
	<line class="st12" x1="131.4" y1="224.5" x2="131.4" y2="255.3"/>
	<line class="st12" x1="123.1" y1="224.5" x2="123.1" y2="255.3"/>
	<line class="st12" x1="114.8" y1="224.5" x2="114.8" y2="255.3"/>
	<line class="st12" x1="106.5" y1="224.5" x2="106.5" y2="255.3"/>
	<circle class="st5" cx="248.8" cy="112.7" r="7.5"/>
	<circle class="st5" cx="228.6" cy="112.7" r="3.3"/>
	<circle class="st5" cx="216.7" cy="112.7" r="3.3"/>
	<line class="st13" x1="135.4" y1="97.3" x2="135.4" y2="128"/>
	<line class="st13" x1="127.1" y1="97.3" x2="127.1" y2="128"/>
	<line class="st13" x1="118.8" y1="97.3" x2="118.8" y2="128"/>
	<line class="st13" x1="110.5" y1="97.3" x2="110.5" y2="128"/>
</g>
<g>
	<path id="XMLID_69_" class="st14" d="M32.3,100.5h158.6c3.1,0,5.6,2.5,5.6,5.6V145H26.7v-38.9C26.7,103,29.2,100.5,32.3,100.5z
		 M26.7,205h169.8v-44.5H26.7V205z M26.7,264.9h169.8v-44.5H26.7V264.9z"/>
	<polygon class="st15" points="174.3,283.2 187.9,283.2 192.9,271.9 174,271.9 	"/>
	<polygon class="st15" points="49,283.2 35.3,283.2 30.4,271.9 49.2,271.9 	"/>
	<g>
		<path class="st16" d="M26.7,106.1V145h55.4c-18.1-9.9-35.2-20.7-49.7-37.7c-1.4-1.6-2.8-3.4-4.1-5.2
			C27.4,103.1,26.7,104.5,26.7,106.1z"/>
	</g>
	<polygon class="st17" points="30.7,152.7 192.5,152.7 196.5,145 26.7,145 	"/>
	<polygon class="st18" points="192.5,152.7 30.7,152.7 26.7,160.5 196.5,160.5 	"/>
	<polygon class="st17" points="30.7,212.7 192.5,212.7 196.5,205 26.7,205 	"/>
	<polygon class="st15" points="30.4,271.9 192.9,271.9 196.5,264.9 26.7,264.9 	"/>
	<polygon class="st18" points="192.5,212.7 30.7,212.7 26.7,220.4 196.5,220.4 	"/>
	<circle class="st19" cx="174" cy="123.6" r="7"/>
	<circle class="st20" cx="155.1" cy="123.6" r="3.1"/>
	<circle class="st21" cx="143.9" cy="123.6" r="3.1"/>
	<circle class="st20" cx="155.1" cy="182.7" r="3.1"/>
	<circle class="st21" cx="143.9" cy="182.7" r="3.1"/>
	<circle class="st20" cx="155.1" cy="242.7" r="3.1"/>
	<circle class="st21" cx="143.9" cy="242.7" r="3.1"/>
	<circle class="st19" cx="174" cy="182.7" r="7"/>
	<circle class="st19" cx="174" cy="242.7" r="7"/>
	<line class="st22" x1="64.1" y1="169.2" x2="64.1" y2="198"/>
	<line class="st22" x1="56.3" y1="169.2" x2="56.3" y2="198"/>
	<line class="st22" x1="48.5" y1="169.2" x2="48.5" y2="198"/>
	<line class="st22" x1="40.7" y1="169.2" x2="40.7" y2="198"/>
	<line class="st22" x1="64.1" y1="109.2" x2="64.1" y2="138"/>
	<line class="st22" x1="56.3" y1="109.2" x2="56.3" y2="138"/>
	<line class="st22" x1="48.5" y1="109.2" x2="48.5" y2="138"/>
	<line class="st22" x1="40.7" y1="109.2" x2="40.7" y2="138"/>
	<line class="st22" x1="64.1" y1="228.3" x2="64.1" y2="257.1"/>
	<line class="st22" x1="56.3" y1="228.3" x2="56.3" y2="257.1"/>
	<line class="st22" x1="48.5" y1="228.3" x2="48.5" y2="257.1"/>
	<line class="st22" x1="40.7" y1="228.3" x2="40.7" y2="257.1"/>
</g>
<g>
	<linearGradient id="SVGID_4_" gradientUnits="userSpaceOnUse" x1="338.6792" y1="68.3421" x2="382.3907" y2="68.3421">
		<stop  offset="0" style="stop-color:#48CC8C"/>
		<stop  offset="1" style="stop-color:#78F0B7"/>
	</linearGradient>
	<circle class="st23" cx="360.5" cy="68.3" r="21.9"/>
	<g>
		<path class="st24" d="M370.2,71.6h-19.3c-0.6,0-1-0.4-1-1v-4.5c0-0.6,0.4-1,1-1h19.3c0.6,0,1,0.4,1,1v4.5
			C371.2,71.1,370.8,71.6,370.2,71.6z"/>
	</g>
	<g>
		<path class="st24" d="M362.8,79h-4.5c-0.6,0-1-0.4-1-1V58.7c0-0.6,0.4-1,1-1h4.5c0.6,0,1,0.4,1,1V78C363.8,78.6,363.3,79,362.8,79
			z"/>
	</g>
</g>
</svg>
